<?xml version="1.0" encoding="UTF-8"?>
<svg version="1.1" xmlns="http://www.w3.org/2000/svg" width="225" height="225">
<path d="M0 0 C74.25 0 148.5 0 225 0 C225 74.25 225 148.5 225 225 C150.75 225 76.5 225 0 225 C0 150.75 0 76.5 0 0 Z " fill="#636363" transform="translate(0,0)"/>
<path d="M0 0 C43.56 0 87.12 0 132 0 C132.99 2.475 132.99 2.475 134 5 C132.88625 5.20625 131.7725 5.4125 130.625 5.625 C129.42875 6.07875 128.2325 6.5325 127 7 C125.34640866 10.85469286 124.63189167 14.67492052 124.0625 18.8125 C123.42018558 23.26824016 122.70671166 27.69571292 121.89160156 32.12207031 C120.18664982 41.38663352 119.02313161 50.63441063 118 60 C127.24 60 136.48 60 146 60 C145 65 145 65 143 69 C129.47 69.33 115.94 69.66 102 70 C100.35 73.63 98.7 77.26 97 81 C111.85 81.33 126.7 81.66 142 82 C142 82.33 142 82.66 142 83 C95.14 83 48.28 83 0 83 C0 82.67 0 82.34 0 82 C26.73 81.505 26.73 81.505 54 81 C52.35 77.37 50.7 73.74 49 70 C24.745 69.505 24.745 69.505 0 69 C0 46.23 0 23.46 0 0 Z " fill="#747474" transform="translate(20,0)"/>
<path d="M0 0 C2.05078125 0.03255208 4.1015625 0.06510417 6.15234375 0.09765625 C6.64154297 1.23654297 6.64154297 1.23654297 7.140625 2.3984375 C7.79611328 3.88923828 7.79611328 3.88923828 8.46484375 5.41015625 C8.89410156 6.39628906 9.32335937 7.38242188 9.765625 8.3984375 C11.0568633 10.91180557 12.17243748 12.16931004 14.15234375 14.09765625 C15.10514795 15.75365679 15.99858508 17.44479697 16.83984375 19.16015625 C17.27683594 20.03800781 17.71382812 20.91585938 18.1640625 21.8203125 C19.15234375 24.09765625 19.15234375 24.09765625 19.15234375 26.09765625 C37.96234375 26.42765625 56.77234375 26.75765625 76.15234375 27.09765625 C76.15234375 31.71765625 76.15234375 36.33765625 76.15234375 41.09765625 C58.66234375 41.42765625 41.17234375 41.75765625 23.15234375 42.09765625 C21.50234375 45.72765625 19.85234375 49.35765625 18.15234375 53.09765625 C16.321875 53.15824219 14.49140625 53.21882813 12.60546875 53.28125 C10.20441921 53.3656619 7.80337796 53.45030958 5.40234375 53.53515625 C4.19578125 53.57447266 2.98921875 53.61378906 1.74609375 53.65429688 C0.5859375 53.69619141 -0.57421875 53.73808594 -1.76953125 53.78125 C-2.8378418 53.81790771 -3.90615234 53.85456543 -5.00683594 53.89233398 C-7.43076777 54.06752534 -9.52652337 54.40964112 -11.84765625 55.09765625 C-10.75291714 44.72092706 -9.57917179 34.39121758 -7.84765625 24.09765625 C-7.73276855 23.40188477 -7.61788086 22.70611328 -7.49951172 21.98925781 C-7.12190012 19.71177246 -6.73608882 17.43581935 -6.34765625 15.16015625 C-6.22914307 14.44980225 -6.11062988 13.73944824 -5.98852539 13.00756836 C-3.75485459 0.19845954 -3.75485459 0.19845954 0 0 Z " fill="#5A5A5A" transform="translate(148.84765625,5.90234375)"/>
<path d="M0 0 C13.86 0 27.72 0 42 0 C42.66 1.65 43.32 3.3 44 5 C45.45833358 6.62514468 45.45833358 6.62514468 47 8 C47.66 8.99 48.32 9.98 49 11 C49.99 11.66 50.98 12.32 52 13 C34.18 13 16.36 13 -2 13 C-3 6 -3 6 0 0 Z " fill="#000000" transform="translate(35,69)"/>
<path d="M0 0 C15.51 0 31.02 0 47 0 C46.67 2.31 46.34 4.62 46 7 C46 8.98 46 10.96 46 13 C27.52 13 9.04 13 -10 13 C-8 10 -8 10 -5 8 C-2.65551419 5.31073687 -1.13360253 3.4008076 0 0 Z " fill="#000000" transform="translate(114,69)"/>
</svg>
